<svg width="48" height="48" viewBox="0 0 48 48" fill="none" xmlns="http://www.w3.org/2000/svg">
<g id="Icon-Resource/IoT/Res_AWS-IoT_HTTP2-Protocol_48">
<path id="Amazon-IOT-RESOURCES-IoT-HTTP/2-protocol_Resource-Icon_light-bg" fill-rule="evenodd" clip-rule="evenodd" d="M12.7421 43.961H40.1971H43.9611V40.197V32.849H12.7421V43.961ZM10.7421 30.849H45.9611V40.197V45.961H40.1971H10.7421V30.849ZM7.76412 2C4.58612 2 2.00012 4.586 2.00012 7.765V40.197C2.00012 43.375 4.58612 45.961 7.76412 45.961H9.12012V43.961H7.76412C5.68812 43.961 4.00012 42.273 4.00012 40.197V7.765C4.00012 5.689 5.68812 4 7.76412 4H40.1971C42.2721 4 43.9611 5.689 43.9611 7.765V29.226H45.9611V7.765C45.9611 4.586 43.3751 2 40.1971 2H7.76412ZM43.0491 41.468H40.1951C41.0061 40.419 41.5801 39.642 41.9151 39.134C42.2521 38.627 42.4811 38.202 42.6081 37.859C42.7341 37.518 42.7971 37.185 42.7971 36.863C42.7971 36.255 42.6461 35.781 42.3461 35.441C42.0461 35.103 41.6251 34.933 41.0871 34.933C40.7791 34.933 40.4781 34.987 40.1851 35.096C39.8911 35.203 39.5871 35.377 39.2721 35.614V36.507C39.9361 36.059 40.4851 35.835 40.9201 35.835C41.4861 35.835 41.7681 36.198 41.7681 36.926C41.7681 37.255 41.6881 37.602 41.5271 37.965C41.3671 38.328 41.1011 38.785 40.7301 39.333C40.3601 39.883 39.8211 40.622 39.1141 41.552V42.339H43.0491V41.468ZM34.4781 43.85H35.4651L38.3071 34.429H37.3211L34.4781 43.85ZM33.1301 36.249C32.9451 36.001 32.6871 35.877 32.3591 35.877H31.3201V38.709H32.3591C32.6871 38.709 32.9451 38.584 33.1301 38.331C33.3141 38.08 33.4071 37.733 33.4071 37.293C33.4071 36.846 33.3141 36.497 33.1301 36.249ZM34.4141 37.293C34.4141 37.965 34.2341 38.503 33.8751 38.909C33.5141 39.315 33.0441 39.517 32.4641 39.517H31.3201V42.339H30.3341V35.069H32.4641C32.8541 35.069 33.1991 35.163 33.4971 35.352C33.7941 35.541 34.0211 35.804 34.1791 36.139C34.3371 36.475 34.4141 36.859 34.4141 37.293ZM24.7641 35.919H26.5691V42.339H27.5861V35.919H29.4011V35.069H24.7641V35.919ZM19.5181 35.919H21.3231V42.339H22.3411V35.919H24.1551V35.069H19.5181V35.919ZM17.5681 35.069H18.5861V42.339H17.5681V39.034H14.9251V42.339H13.9071V35.069H14.9251V38.206H17.5681V35.069Z" fill="#3F8624"/>
</g>
</svg>
