<svg width="48" height="48" viewBox="0 0 48 48" fill="none" xmlns="http://www.w3.org/2000/svg">
<g id="Icon-Resource/Compute/Res_AWS-Lambda_Lambda-Function_48">
<path id="Amazon-Lambda-Lambda-Function_Resource-Icon_light-bg" fill-rule="evenodd" clip-rule="evenodd" d="M24 44C12.972 44 4 35.028 4 24C4 12.972 12.972 4 24 4C35.028 4 44 12.972 44 24C44 35.028 35.028 44 24 44ZM24 2C11.869 2 2 11.869 2 24C2 36.131 11.869 46 24 46C36.131 46 46 36.131 46 24C46 11.869 36.131 2 24 2ZM17.231 35.25H11.876L18.221 21.959L20.902 27.492L17.231 35.25ZM19.114 19.215C18.946 18.87 18.597 18.651 18.214 18.651H18.211C17.826 18.652 17.477 18.874 17.312 19.221L9.389 35.819C9.24 36.129 9.262 36.493 9.445 36.783C9.628 37.074 9.947 37.25 10.291 37.25H17.864C18.251 37.25 18.603 37.027 18.769 36.678L22.915 27.915C23.044 27.642 23.043 27.323 22.911 27.051L19.114 19.215ZM36.125 35.25H30.673L20.761 13.953C20.597 13.601 20.243 13.375 19.854 13.375H16.251L16.255 9.25H23.475L33.339 30.545C33.503 30.898 33.856 31.125 34.246 31.125H36.125V35.25ZM37.125 29.125H34.885L25.021 7.83C24.856 7.477 24.503 7.25 24.113 7.25H15.256C14.704 7.25 14.257 7.697 14.256 8.249L14.25 14.374C14.25 14.64 14.355 14.894 14.543 15.082C14.73 15.27 14.984 15.375 15.25 15.375H19.217L29.129 36.672C29.293 37.024 29.646 37.25 30.035 37.25H37.125C37.678 37.25 38.125 36.803 38.125 36.25V30.125C38.125 29.572 37.678 29.125 37.125 29.125Z" fill="#D45B07"/>
</g>
</svg>
