<svg xmlns="http://www.w3.org/2000/svg" width="50" height="50" viewBox="0 0 50 50" fill="none">
<g clip-path="url(#clip0_1519_222)">
<path d="M31.25 18.75H18.75V31.25H31.25V18.75ZM27.0833 27.0833H22.9167V22.9167H27.0833V27.0833ZM43.75 22.9167V18.75H39.5833V14.5833C39.5833 12.2917 37.7083 10.4167 35.4167 10.4167H31.25V6.25H27.0833V10.4167H22.9167V6.25H18.75V10.4167H14.5833C12.2917 10.4167 10.4167 12.2917 10.4167 14.5833V18.75H6.25V22.9167H10.4167V27.0833H6.25V31.25H10.4167V35.4167C10.4167 37.7083 12.2917 39.5833 14.5833 39.5833H18.75V43.75H22.9167V39.5833H27.0833V43.75H31.25V39.5833H35.4167C37.7083 39.5833 39.5833 37.7083 39.5833 35.4167V31.25H43.75V27.0833H39.5833V22.9167H43.75ZM35.4167 35.4167H14.5833V14.5833H35.4167V35.4167Z" fill="#03a9f4"/>
</g>
<defs fill="#FA6900">
<clipPath id="clip0_1519_222" fill="#FA6900">
<rect width="50" height="50" fill="#FA6900"/>
</clipPath>
</defs>
</svg>
