<svg viewBox="0 0 533 531" fill="none" xmlns="http://www.w3.org/2000/svg">
  <path
    d="M264.409 0C129.188 0 137.631 58.6577 137.631 58.6577L137.781 119.429H266.82V137.674H86.5283C86.5283 137.674 0 127.858 0 264.336C0 400.819 75.524 395.979 75.524 395.979H120.596V332.646C120.596 332.646 118.167 257.099 194.915 257.099H322.899C322.899 257.099 394.804 258.261 394.804 187.584V70.7231C394.804 70.7231 405.725 0 264.409 0ZM193.257 40.8674C196.306 40.8647 199.326 41.4634 202.144 42.6294C204.961 43.7954 207.522 45.5058 209.678 47.6626C211.834 49.8194 213.544 52.3804 214.709 55.1989C215.875 58.0175 216.474 61.0383 216.471 64.0885C216.474 67.1387 215.875 70.1595 214.709 72.9781C213.544 75.7966 211.834 78.3576 209.678 80.5144C207.522 82.6712 204.961 84.3816 202.144 85.5476C199.326 86.7136 196.306 87.3123 193.257 87.3096C190.207 87.3123 187.188 86.7136 184.37 85.5476C181.552 84.3816 178.992 82.6712 176.836 80.5144C174.68 78.3576 172.97 75.7966 171.804 72.9781C170.639 70.1595 170.04 67.1387 170.043 64.0885C170.04 61.0383 170.639 58.0175 171.804 55.1989C172.97 52.3804 174.68 49.8194 176.836 47.6626C178.992 45.5058 181.552 43.7954 184.37 42.6294C187.188 41.4634 190.207 40.8647 193.257 40.8674Z"
    fill="url(#paint0_linear_1_25)"
  />
  <path
    d="M268.593 531C403.815 531 395.372 472.194 395.372 472.194L395.221 411.272H266.18V392.98H446.472C446.472 392.98 533 402.821 533 265.994C533 129.169 457.476 134.021 457.476 134.021H412.404V197.512C412.404 197.512 414.833 273.25 338.085 273.25H210.101C210.101 273.25 138.196 272.085 138.196 342.943V460.1C138.196 460.1 127.277 531 268.591 531H268.593ZM339.745 490.034C336.696 490.036 333.676 489.436 330.858 488.267C328.041 487.098 325.48 485.383 323.324 483.221C321.168 481.059 319.458 478.491 318.293 475.666C317.127 472.84 316.528 469.812 316.531 466.754C316.528 463.696 317.127 460.667 318.292 457.841C319.458 455.015 321.167 452.448 323.324 450.285C325.48 448.123 328.04 446.408 330.858 445.239C333.676 444.07 336.696 443.469 339.745 443.472C342.795 443.469 345.814 444.07 348.632 445.238C351.45 446.407 354.01 448.122 356.166 450.284C358.322 452.447 360.032 455.014 361.198 457.84C362.364 460.665 362.962 463.694 362.959 466.752C362.962 469.81 362.364 472.838 361.198 475.664C360.032 478.489 358.322 481.057 356.166 483.219C354.01 485.381 351.45 487.096 348.632 488.265C345.814 489.434 342.795 490.034 339.745 490.031V490.034Z"
    fill="url(#paint1_linear_1_25)"
  />
  <defs>
    <linearGradient
      id="paint0_linear_1_25"
      x1="51.1881"
      y1="47.6744"
      x2="315.235"
      y2="309.008"
      gradientUnits="userSpaceOnUse"
    >
      <stop stopColor="#387EB8" />
      <stop offset="1" stopColor="#366994" />
    </linearGradient>
    <linearGradient
      id="paint1_linear_1_25"
      x1="213.556"
      y1="215.699"
      x2="497.782"
      y2="483.63"
      gradientUnits="userSpaceOnUse"
    >
      <stop stopColor="#FFE052" />
      <stop offset="1" stopColor="#FFC331" />
    </linearGradient>
  </defs>
</svg>
