<svg viewBox="0 0 48 48" fill="none" xmlns="http://www.w3.org/2000/svg">
  <g clipPath="url(#clip0_3003_14215)">
    <path
      fillRule="evenodd"
      clipRule="evenodd"
      d="M35.7376 39.5915C32.3149 42.0687 28.2722 43.3402 24.0449 43.3468C14.5879 43.3468 6.67402 37.2328 4.70215 28.444C5.51332 28.3518 6.28492 28.0158 6.91143 27.4953C7.56432 26.9551 8.03916 26.2172 8.26998 25.4002H12.1835V23.2458H8.28976C8.08532 22.4091 7.61708 21.6515 6.96419 21.0849C6.33768 20.5381 5.55289 20.1955 4.72853 20.0966C5.51991 17.0792 7.03014 14.2528 9.10093 11.9205C11.2377 9.50922 13.9614 7.63814 16.9686 6.49836C19.9825 5.35858 23.2667 4.96328 26.4586 5.3454C29.6572 5.73411 32.7502 6.90683 35.4013 8.7318L35.5991 8.87015L36.8917 7.08472L36.6807 6.93977C33.6866 4.86446 30.1782 3.54679 26.5444 3.13832C22.9172 2.72984 19.2043 3.23055 15.8079 4.58116C12.4182 5.93176 9.37791 8.12567 7.03014 10.9191C4.70874 13.6796 3.07981 17.0001 2.3148 20.5315C1.63553 20.8675 1.06837 21.3814 0.659488 22.0204C0.230821 22.6924 0 23.4699 0 24.2736C0 25.0774 0.230821 25.8548 0.659488 26.5268C1.06837 27.1659 1.63553 27.6798 2.3148 28.0158C3.36998 32.9504 6.10026 37.4173 10.0176 40.6061C13.9679 43.8212 18.9471 45.5934 24.0383 45.6H24.0845C28.7537 45.6 33.225 44.1506 37.0039 41.4164L37.2017 41.2781L35.9355 39.4465L35.731 39.5915H35.7376ZM6.03431 23.516C6.18599 23.8717 6.22556 24.2604 6.14643 24.6426C6.07388 25.0247 5.88923 25.3673 5.61224 25.644C5.33526 25.9207 4.99232 26.1052 4.61641 26.1776C4.23391 26.2501 3.84481 26.2172 3.48869 26.0656C3.13257 25.9207 2.8292 25.6703 2.61157 25.3475C2.39394 25.0247 2.28183 24.6492 2.28183 24.267V24.1287C2.30161 23.7004 2.47308 23.292 2.75666 22.9626C3.07321 22.6002 3.50847 22.3696 3.95693 22.3169H4.23391C4.61641 22.3169 4.99232 22.4289 5.30888 22.6397C5.63202 22.8571 5.88263 23.1536 6.03431 23.516ZM17.846 35.8492H18.1296C19.2639 35.5462 20.3389 34.9927 21.216 34.2483L21.7963 33.8398C21.9546 33.741 22.0931 33.596 22.1854 33.4313C22.2778 33.2666 22.3239 33.0821 22.3305 32.8911V29.3466L27.613 18.8843C27.6658 18.8053 27.6987 18.7262 27.7119 18.6669C27.7845 18.4824 27.824 18.2848 27.8174 18.0937C27.8174 17.6325 27.6328 17.2109 27.2767 16.8551C25.8786 15.465 22.0799 15.2739 19.9168 15.2607V15.5111L19.8113 15.2607H19.7651C17.602 15.2607 13.8297 15.4716 12.4514 16.8419C12.1019 17.1911 11.9238 17.5996 11.9238 18.0542C11.9238 18.2518 11.9568 18.4495 12.0293 18.634C12.0557 18.7064 12.0953 18.7789 12.1216 18.825L16.8831 29.3202V34.7226C16.8831 35.4408 17.2327 35.8492 17.846 35.8492ZM14.72 18.0608C15.5905 17.7511 17.3184 17.3756 19.864 17.3756C22.4097 17.3756 24.1639 17.7511 25.0212 18.0608C24.1639 18.3704 22.4492 18.746 19.864 18.746C17.2788 18.746 15.5774 18.3704 14.72 18.0674V18.0608ZM18.8748 28.6482L15.3202 20.5314C16.8106 20.8279 18.334 20.9794 19.8574 20.9794C21.3215 20.9794 22.7856 20.841 24.2298 20.5643L20.2795 28.4308L20.2531 32.4101L20.0355 32.5485C19.7123 32.733 19.4156 32.8845 19.1122 33.036C19.0988 33.0427 19.0858 33.0494 19.0731 33.056C19.0356 33.0753 18.9999 33.0937 18.9605 33.1085V29.0896C18.9605 28.9381 18.9276 28.7931 18.8682 28.6416L18.8748 28.6482ZM47.0613 21.625C47.5625 22.2377 47.8791 22.9822 47.9714 23.7728V23.7794C48.0637 24.57 47.9318 25.3672 47.5889 26.0853C47.2459 26.8034 46.7118 27.4096 46.0391 27.8312C45.3664 28.2529 44.5948 28.4769 43.7968 28.4769C42.8274 28.4703 41.8843 28.1277 41.1391 27.515C40.44 26.9484 39.9454 26.1644 39.7278 25.2947H35.6126L35.6522 35.6252H37.1228C37.3602 34.6831 37.9142 33.8529 38.699 33.2732C39.5365 32.6539 40.5719 32.3706 41.6139 32.4694C42.6559 32.5682 43.6188 33.0558 44.3178 33.8266C45.0169 34.604 45.406 35.6054 45.406 36.6464C45.406 37.6873 45.0169 38.6888 44.3178 39.4662C43.6122 40.237 42.6559 40.718 41.6139 40.8234C41.4754 40.8431 41.3369 40.8431 41.1984 40.8431C40.3015 40.8431 39.4244 40.5598 38.699 40.0196C37.9142 39.4398 37.3602 38.6097 37.1228 37.6676H34.5574C34.254 37.6676 33.9705 37.549 33.7594 37.3382C33.5484 37.1273 33.4297 36.844 33.4297 36.541V25.3013H27.413V23.1799H33.4297V11.9073C33.4165 11.7755 33.4363 11.6174 33.4956 11.479C33.5484 11.3407 33.6407 11.2089 33.7528 11.1101C33.8649 11.0113 34.0034 10.9388 34.1485 10.8993C34.2936 10.8597 34.4453 10.8531 34.597 10.8861L37.591 10.919C37.8614 9.9769 38.4484 9.15995 39.2596 8.60653C40.1301 8.01358 41.1787 7.76981 42.2207 7.91476C43.2626 8.0597 44.2057 8.58677 44.8784 9.39713C45.5445 10.2075 45.8874 11.2353 45.8346 12.2828C45.7819 13.3303 45.34 14.3186 44.5948 15.0565C43.8496 15.7944 42.8538 16.2292 41.8052 16.2687C40.7632 16.3214 39.7344 15.9657 38.9298 15.2871C38.1846 14.6546 37.6834 13.7915 37.5053 12.8362H35.5928V23.2062H39.7212C39.9058 22.5013 40.2686 21.8622 40.7764 21.3417C41.3303 20.7751 42.036 20.3733 42.8076 20.1888C43.5792 20.0043 44.3904 20.0373 45.1422 20.2942C45.9006 20.5446 46.5601 21.0057 47.0613 21.625ZM45.1752 25.6439C45.4521 25.3738 45.6368 25.0312 45.7093 24.6491C45.7819 24.267 45.7423 23.8782 45.5972 23.5225C45.4455 23.1601 45.2015 22.8636 44.8784 22.6462C44.5618 22.4288 44.1859 22.3168 43.7968 22.3168C43.2758 22.3168 42.7878 22.521 42.4185 22.89C42.0492 23.2589 41.8447 23.7465 41.8447 24.2669C41.8447 24.6491 41.9569 25.0246 42.1745 25.3474C42.3921 25.6703 42.6955 25.9206 43.0516 26.0656C43.4077 26.2171 43.7968 26.2566 44.1793 26.1776C44.5552 26.1051 44.8982 25.9206 45.1752 25.6439ZM39.6487 12.0259C39.6421 12.408 39.7542 12.7835 39.9652 13.1063H39.9718C40.1828 13.4292 40.4796 13.6795 40.8357 13.8311C41.1918 13.9826 41.5744 14.0221 41.9569 13.9497C42.3328 13.8772 42.6757 13.6927 42.9527 13.4226C43.2297 13.1525 43.4143 12.8099 43.4935 12.4343C43.5726 12.0588 43.533 11.6701 43.3879 11.3143C43.2429 10.9586 42.9988 10.6555 42.6757 10.4381C42.3591 10.2207 41.9898 10.1021 41.6007 10.1021H41.3369C41.1721 10.1218 41.0138 10.1614 40.8555 10.2273C40.6181 10.3261 40.4071 10.4644 40.2224 10.6489C40.0443 10.8334 39.8993 11.0442 39.8003 11.2814C39.7014 11.5186 39.6487 11.7689 39.6487 12.0259ZM39.2332 36.5739V36.8375L39.22 36.8309C39.2661 37.1735 39.4178 37.5226 39.6618 37.8125C39.9058 38.1024 40.2224 38.3132 40.5851 38.4252C40.9478 38.5372 41.3303 38.5438 41.6931 38.4384C42.0558 38.3396 42.3789 38.1353 42.6295 37.8521C42.8735 37.5688 43.0384 37.2196 43.0912 36.8506C43.1505 36.4751 43.0978 36.0996 42.9395 35.757C42.7812 35.4144 42.5306 35.1245 42.2141 34.9203C41.9041 34.716 41.5414 34.6106 41.1655 34.6106H41.1589C40.7236 34.6172 40.2949 34.7819 39.952 35.0586C39.6091 35.3353 39.3717 35.7306 39.2793 36.1589C39.2464 36.2972 39.2332 36.4356 39.2332 36.5739Z"
      fill="#CD2264"
    />
  </g>
  <defs>
    <clipPath id="clip0_3003_14215">
      <rect width="48" height="48" fill="white" />
    </clipPath>
  </defs>
</svg>
