<svg width="36" height="36" viewBox="0 0 36 36" fill="none" xmlns="http://www.w3.org/2000/svg">
<path fill-rule="evenodd" clip-rule="evenodd" d="M16.4498 9.24957L18.3698 7.32957C19.9154 5.78157 22.6298 4.70877 25.325 4.32237C26.5199 4.13621 27.7352 4.12005 28.9346 4.27437C29.9978 4.43277 30.6482 4.74477 30.9506 5.04957C31.2554 5.35197 31.5674 6.00237 31.7258 7.06557C31.8794 8.09037 31.8674 9.34557 31.6778 10.6752C31.2938 13.3704 30.2186 16.0848 28.6706 17.6304L18.0002 28.3032L15.2498 25.5528C15.1384 25.4412 15.0061 25.3527 14.8605 25.2922C14.7149 25.2318 14.5588 25.2006 14.4011 25.2005C14.2434 25.2004 14.0873 25.2313 13.9415 25.2916C13.7958 25.3518 13.6634 25.4402 13.5518 25.5516C13.3265 25.7766 13.1998 26.0819 13.1996 26.4003C13.1995 26.558 13.2304 26.7141 13.2906 26.8599C13.3509 27.0056 13.4392 27.138 13.5506 27.2496L17.1506 30.8496C17.2621 30.9613 17.3945 31.05 17.5403 31.1105C17.6861 31.171 17.8424 31.2021 18.0002 31.2021C18.1581 31.2021 18.3144 31.171 18.4601 31.1105C18.6059 31.05 18.7384 30.9613 18.8498 30.8496L20.1626 29.5344L22.9706 34.2168C23.0643 34.3736 23.1925 34.5069 23.3454 34.6066C23.4984 34.7064 23.6721 34.7699 23.8533 34.7924C24.0346 34.8148 24.2185 34.7956 24.3912 34.7362C24.5639 34.6768 24.7208 34.5788 24.8498 34.4496L29.6498 29.6496C29.7816 29.5176 29.8808 29.3566 29.9396 29.1796C29.9983 29.0025 30.015 28.8142 29.9882 28.6296L28.8722 20.8248L30.3698 19.3296C32.4218 17.2752 33.629 13.9896 34.0538 11.0136C34.2698 9.50877 34.2938 8.01357 34.0994 6.70797C33.9074 5.44077 33.485 4.18797 32.6498 3.35037C31.8122 2.51517 30.5594 2.09037 29.2898 1.90077C27.8604 1.71259 26.4115 1.72875 24.9866 1.94877C22.0082 2.36877 18.7202 3.57597 16.6706 5.62797L15.1754 7.12557L7.37063 6.00957C7.18601 5.98281 6.99769 5.99946 6.82063 6.0582C6.64357 6.11695 6.48264 6.21616 6.35063 6.34797L1.55063 11.148C1.42143 11.277 1.3234 11.4339 1.264 11.6066C1.20459 11.7793 1.18538 11.9632 1.20783 12.1445C1.23029 12.3257 1.2938 12.4994 1.39355 12.6524C1.4933 12.8053 1.62665 12.9335 1.78343 13.0272L6.46343 15.8352L5.15063 17.148C5.03888 17.2594 4.95021 17.3919 4.88972 17.5376C4.82922 17.6834 4.79808 17.8397 4.79808 17.9976C4.79808 18.1554 4.82922 18.3117 4.88972 18.4575C4.95021 18.6033 5.03888 18.7357 5.15063 18.8472L8.75063 22.4472C8.8622 22.5587 8.99465 22.6472 9.14043 22.7076C9.2862 22.768 9.44244 22.7991 9.60023 22.7991C9.75801 22.7991 9.91426 22.768 10.06 22.7076C10.2058 22.6472 10.3383 22.5587 10.4498 22.4472C10.5614 22.3356 10.6499 22.2031 10.7103 22.0574C10.7707 21.9116 10.8017 21.7554 10.8017 21.5976C10.8017 21.4398 10.7707 21.2835 10.7103 21.1378C10.6499 20.992 10.5614 20.8595 10.4498 20.748L7.69703 18L9.24983 16.4496L16.4498 9.24957ZM24.2378 31.6656L21.9098 27.7848L26.7506 22.9464L27.5282 28.3752L24.2402 31.6632L24.2378 31.6656ZM8.21543 14.088L13.0538 9.24957L7.62503 8.47197L4.33703 11.76L8.21543 14.088ZM5.64743 24.8496C5.759 24.7382 5.84753 24.6059 5.90798 24.4602C5.96842 24.3146 5.99959 24.1585 5.9997 24.0008C5.99981 23.8431 5.96886 23.687 5.90863 23.5413C5.84839 23.3956 5.76004 23.2631 5.64863 23.1516C5.53722 23.04 5.40492 22.9515 5.25929 22.891C5.11366 22.8306 4.95755 22.7994 4.79988 22.7993C4.6422 22.7992 4.48605 22.8301 4.34034 22.8904C4.19462 22.9506 4.0622 23.039 3.95063 23.1504L1.55063 25.5504C1.32562 25.7757 1.19934 26.0812 1.19956 26.3996C1.19979 26.7181 1.3265 27.0234 1.55183 27.2484C1.77716 27.4734 2.08264 27.5997 2.40108 27.5994C2.71951 27.5992 3.02482 27.4725 3.24983 27.2472L5.64983 24.8472L5.64743 24.8496ZM9.24743 28.4496C9.36204 28.3389 9.45346 28.2065 9.51635 28.0601C9.57924 27.9136 9.61234 27.7562 9.61373 27.5968C9.61511 27.4375 9.58475 27.2795 9.52442 27.132C9.46408 26.9846 9.37497 26.8506 9.2623 26.7379C9.14963 26.6252 9.01565 26.5361 8.86817 26.4758C8.7207 26.4154 8.56268 26.3851 8.40335 26.3865C8.24401 26.3879 8.08655 26.421 7.94014 26.4838C7.79374 26.5467 7.66133 26.6382 7.55063 26.7528L2.75063 31.5528C2.52562 31.7781 2.39934 32.0836 2.39956 32.402C2.39979 32.7205 2.5265 33.0258 2.75183 33.2508C2.97716 33.4758 3.28264 33.6021 3.60108 33.6018C3.91951 33.6016 4.22482 33.4749 4.44983 33.2496L9.24983 28.4496H9.24743ZM12.8474 32.0496C12.959 31.9382 13.0475 31.8059 13.108 31.6602C13.1684 31.5146 13.1996 31.3585 13.1997 31.2008C13.1998 31.0431 13.1689 30.887 13.1086 30.7413C13.0484 30.5956 12.96 30.4631 12.8486 30.3516C12.7372 30.24 12.6049 30.1515 12.4593 30.091C12.3137 30.0306 12.1576 29.9994 11.9999 29.9993C11.8422 29.9992 11.6861 30.0301 11.5403 30.0904C11.3946 30.1506 11.2622 30.239 11.1506 30.3504L8.75063 32.7504C8.52562 32.9757 8.39934 33.2812 8.39956 33.5996C8.39979 33.9181 8.5265 34.2234 8.75183 34.4484C8.97716 34.6734 9.28264 34.7997 9.60108 34.7994C9.91951 34.7992 10.2248 34.6725 10.4498 34.4472L12.8498 32.0472L12.8474 32.0496ZM22.8002 16.1952C23.5952 16.1952 24.3577 15.8794 24.9199 15.3172C25.482 14.755 25.7978 13.9926 25.7978 13.1976C25.7978 12.4026 25.482 11.6401 24.9199 11.0779C24.3577 10.5158 23.5952 10.2 22.8002 10.2C22.0052 10.2 21.2428 10.5158 20.6806 11.0779C20.1184 11.6401 19.8026 12.4026 19.8026 13.1976C19.8026 13.9926 20.1184 14.755 20.6806 15.3172C21.2428 15.8794 22.0052 16.1952 22.8002 16.1952Z" fill="#E9EAF1"/>
</svg>
