<?xml version="1.0" encoding="UTF-8"?><svg id="a" xmlns="http://www.w3.org/2000/svg" viewBox="0 0 572 572"><defs><style>.b{fill:#00cde7;}</style></defs><path class="b" d="M285.94,572c-82.08,0-160.38-35.54-214.8-97.49-.6-.73-1.24-1.52-1.75-2.53-.51-.58-1.02-1.73-1.47-2.74-.58-1.28-.96-2.48-1.22-3.75-.26-1.15-.39-2.36-.39-3.63s.13-2.43,.38-3.71c.3-1.34,.59-2.46,1.08-3.58,.33-.78,.71-1.64,1.2-2.49,.87-1.49,1.87-2.78,3.17-4.07,1.63-1.51,3.2-2.61,4.83-3.42l.62-.65,1.06-.06c.96-.37,1.99-.68,3.1-.9,1.11-.24,2.42-.38,3.71-.38h226.8c.66,0,1.37-.55,1.37-1.37V254.45c0-21.71,17.85-39.37,39.79-39.37h43.48c6.37-9.55,17.2-15.39,28.77-15.39,19.05,0,34.55,15.5,34.55,34.55s-15.5,34.55-34.55,34.55c-11.73,0-22.6-5.92-28.9-15.6h-43.34c-.77,0-1.37,.56-1.37,1.27v186.78c0,21.77-17.85,39.48-39.79,39.48H133.21c43.43,34.23,97.27,52.97,152.73,52.97,3.74,0,7.51-.08,11.28-.25,111.98-4.98,219.19-102.84,234.12-213.7,4.28-31.69,2.52-63.42-5.26-94.34-1.47-5.89-.21-11.97,3.46-16.67,3.63-4.64,9.11-7.3,15.07-7.3,8.75,0,16.36,5.84,18.52,14.21,10.2,39.94,11.6,81.12,4.16,122.4-22.11,122.12-123.68,217.49-247,231.93-11.42,1.34-22.98,2.02-34.35,2.02h0Zm-45.2-157.07c-19.05,0-34.55-15.5-34.55-34.55,0-11.41,5.48-21.84,14.77-28.31v-97c0-.66-.54-1.37-1.36-1.37h-60.55c-21.88,0-39.68-17.8-39.68-39.68v-40.64c0-21.88,17.81-39.68,39.68-39.68H481.11c-46.81-59.84-119.18-95.34-195.11-95.34-7.97,0-16.08,.39-24.08,1.15-117.12,11.14-212.86,107.97-222.69,225.22-3.63,42.19,3.24,83.14,20.41,121.72,2.69,6.05,2.17,12.94-1.4,18.42-3.47,5.34-9.38,8.53-15.79,8.53-7.85,0-14.62-4.28-17.68-10.91C5.08,358.24-3.11,309.33,1.06,261,12.87,123.6,125.44,11.78,262.92,.9c7.63-.6,15.34-.9,22.94-.9,101.88,0,196.93,55.06,248.05,143.69,1.68,2.95,2.56,6.16,2.56,9.27,0,10.62-8.69,19.26-19.37,19.26-1.1,0-2.08-.11-3.04-.24l-355.02,.03c-.82,0-1.36,.71-1.36,1.37v40.64c0,.79,.57,1.37,1.36,1.37h60.55c21.88,0,39.68,17.8,39.68,39.68v96.17c9.93,6.33,16.01,17.29,16.01,29.14,0,19.05-15.5,34.55-34.55,34.55Z"/></svg>
