<?xml version="1.0" encoding="utf-8"?>
<!-- Generator: Adobe Illustrator 26.1.0, SVG Export Plug-In . SVG Version: 6.00 Build 0)  -->
<svg version="1.1" id="Layer_1" xmlns="http://www.w3.org/2000/svg" xmlns:xlink="http://www.w3.org/1999/xlink" x="0px" y="0px"
	 viewBox="0 0 32 32" style="enable-background:new 0 0 32 32;" xml:space="preserve">
<style type="text/css">
	.st0{fill:#FFFFFF;}
</style>
<path class="st0" d="M16,31c-4.3,0-8.4-1.9-11.3-5.1c0,0-0.1-0.1-0.1-0.1c0,0-0.1-0.1-0.1-0.1c0-0.1,0-0.1-0.1-0.2
	c0-0.1,0-0.1,0-0.2c0-0.1,0-0.1,0-0.2c0-0.1,0-0.1,0.1-0.2c0,0,0-0.1,0.1-0.1c0-0.1,0.1-0.1,0.2-0.2C4.9,24.4,5,24.4,5,24.3l0,0h0.1
	c0,0,0.1,0,0.2,0c0.1,0,0.1,0,0.2,0h11.9c0,0,0.1,0,0.1-0.1v-9.8c0-1.1,0.9-2.1,2.1-2.1h2.3c0.3-0.5,0.9-0.8,1.5-0.8
	c1,0,1.8,0.8,1.8,1.8c0,1-0.8,1.8-1.8,1.8c-0.6,0-1.2-0.3-1.5-0.8h-2.3c0,0-0.1,0-0.1,0.1v9.8c0,1.1-0.9,2.1-2.1,2.1H8
	c2.3,1.8,5.1,2.8,8,2.8c0.2,0,0.4,0,0.6,0c5.9-0.3,11.5-5.4,12.3-11.2c0.2-1.7,0.1-3.3-0.3-4.9c-0.1-0.3,0-0.6,0.2-0.9
	c0.2-0.2,0.5-0.4,0.8-0.4c0.5,0,0.9,0.3,1,0.7c0.5,2.1,0.6,4.3,0.2,6.4c-1.2,6.4-6.5,11.4-13,12.2C17.2,31,16.6,31,16,31L16,31z
	 M13.6,22.8c-1,0-1.8-0.8-1.8-1.8c0-0.6,0.3-1.1,0.8-1.5v-5.1c0,0,0-0.1-0.1-0.1H9.3c-1.1,0-2.1-0.9-2.1-2.1v-2.1
	C7.3,8.9,8.2,8,9.3,8h16.9C23.8,4.9,20,3,16,3c-0.4,0-0.8,0-1.3,0.1C8.6,3.7,3.6,8.7,3.1,14.9c-0.2,2.2,0.2,4.4,1.1,6.4
	c0.1,0.3,0.1,0.7-0.1,1c-0.2,0.3-0.5,0.4-0.8,0.4c-0.4,0-0.8-0.2-0.9-0.6c-1-2.3-1.5-4.9-1.2-7.4C1.7,7.5,7.6,1.6,14.8,1
	c0.4,0,0.8,0,1.2,0c5.3,0,10.3,2.9,13,7.5c0.1,0.2,0.1,0.3,0.1,0.5c0,0.6-0.5,1-1,1c-0.1,0-0.1,0-0.2,0H9.3c0,0-0.1,0-0.1,0.1v2.1
	c0,0,0,0.1,0.1,0.1h3.2c1.1,0,2.1,0.9,2.1,2.1v5c0.5,0.3,0.8,0.9,0.8,1.5C15.4,21.9,14.6,22.8,13.6,22.8L13.6,22.8z"/>
</svg>
