<svg width="32" height="32" viewBox="0 0 32 32" fill="none" xmlns="http://www.w3.org/2000/svg">
<g clip-path="url(#clip0_10637_70926)">
<path d="M6.12044 9.18667C7.05378 8.24 7.98711 7.38667 8.40044 7.56C9.06711 7.82667 8.40044 8.93333 8.00044 9.58667C7.66711 10.1467 4.18711 14.7733 4.18711 18C4.18711 19.7067 4.82711 21.12 5.97378 21.9733C6.97378 22.72 8.29378 22.9467 9.49378 22.5867C10.9204 22.1733 12.0938 20.72 13.5738 18.8933C15.1871 16.9067 17.3471 14.3067 19.0138 14.3067C21.1871 14.3067 21.2138 15.6533 21.3604 16.6933C16.3204 17.5467 14.1871 21.5867 14.1871 23.8533C14.1871 26.12 16.1071 27.9733 18.4671 27.9733C20.6404 27.9733 24.1871 26.2 24.7204 19.84H28.0004V16.5067H24.7071C24.5071 14.3067 23.2538 10.9067 19.3338 10.9067C16.3338 10.9067 13.7604 13.4533 12.7471 14.6933C11.9738 15.6667 10.0004 18 9.69378 18.32C9.36044 18.72 8.78711 19.44 8.21378 19.44C7.61378 19.44 7.25378 18.3333 7.73378 16.88C8.20044 15.4267 9.60044 13.0667 10.2004 12.1867C11.2404 10.6667 11.9338 9.62667 11.9338 7.81333C11.9338 4.92 9.74711 4 8.58711 4C6.82711 4 5.29378 5.33333 4.96044 5.66667C4.48044 6.14667 4.08044 6.54667 3.78711 6.90667L6.12044 9.18667ZM18.5071 24.7333C18.0938 24.7333 17.5204 24.3867 17.5204 23.7733C17.5204 22.9733 18.4938 20.84 21.3471 20.0933C20.9471 23.68 19.4404 24.7333 18.5071 24.7333Z" fill="#00CDE7"/>
</g>
<defs>
<clipPath id="clip0_10637_70926">
<rect width="32" height="32" fill="white"/>
</clipPath>
</defs>
</svg>
