<svg viewBox="0 0 48 48" fill="none" xmlns="http://www.w3.org/2000/svg">
  <path
    fillRule="evenodd"
    clipRule="evenodd"
    d="M38.4157 31.7957C38.6793 32.323 38.829 32.9074 38.8504 33.4917H38.8361V41.1021C38.8504 41.1591 38.8504 41.2447 38.8361 41.3373C38.5653 45.7055 30.3705 48 22.4181 48C14.4656 48 6.27078 45.7126 6 41.3373V41.1021V33.5202C6.0285 32.9145 6.17815 32.3444 6.44181 31.8171C6.65558 31.3824 6.94774 30.9976 7.29691 30.6698C6.94774 30.342 6.66271 29.9572 6.44181 29.5226C6.17815 28.9953 6.0285 28.4252 6.00713 27.8337V20.2233C6.03563 19.6176 6.18527 19.0475 6.44893 18.5131C6.66271 18.0784 6.95487 17.6936 7.30404 17.3658C6.95487 17.0451 6.67696 16.6675 6.45606 16.2399C6.1924 15.7197 6.03563 15.1639 6.00713 14.5796V6.91924C6.00713 3.47743 11.6508 0 22.4323 0C27.9192 0 32.9715 1.08314 35.943 2.88599L36.7553 3.3848H30.5843C27.8765 2.74347 25.1686 2.43705 22.4323 2.43705C14.5582 2.43705 8.44418 4.84561 8.44418 6.91924C8.44418 8.99287 14.5511 11.4014 22.4252 11.4014H24.0855L22.7957 13.8385H22.4252C16.6105 13.8385 11.3302 12.6485 8.44418 10.7102V14.5796C8.45843 15.1283 9.01425 15.8052 9.92637 16.3967C12.1069 17.7934 16.0974 18.7553 20.5867 18.9762L20.8504 18.9905L20.7862 21.4276L20.5154 21.4133C15.9335 21.1995 11.9715 20.2945 9.32067 18.8551C9.10689 19.0047 8.92162 19.1971 8.7791 19.4181C8.60808 19.6746 8.49406 19.981 8.44418 20.2874C8.45131 22.3183 14.5582 24.7268 22.4323 24.7268C23.3943 24.7268 24.2708 24.6983 25.19 24.6342L25.5677 24.6057L24.8694 27.0499L24.6841 27.0641C23.9359 27.1354 23.1663 27.1354 22.4252 27.1354C16.6105 27.1354 11.3302 25.9454 8.44418 24.0071V27.8836C8.45131 28.4252 8.99287 29.0879 9.92637 29.7007C12.4774 31.3254 17.266 32.3302 22.4252 32.3302H23.4157L22.7316 34.7672H22.4252C17.152 34.7672 12.3848 33.8195 9.32067 32.1591C9.10689 32.3088 8.92162 32.5012 8.7791 32.7221C8.60808 32.9786 8.49406 33.285 8.44418 33.5914C8.44418 35.5226 14.0238 37.8599 21.4846 38.038H22.4252C24.114 38.0309 25.8171 37.9097 27.4846 37.6817C33.285 36.8694 36.4133 34.9454 36.4133 33.5487C36.3634 33.2708 36.2565 32.9786 36.0784 32.715C35.9359 32.5012 35.7506 32.3088 35.5368 32.152C34.5321 32.6936 33.4703 33.114 32.3729 33.4204L31.3895 33.6912L38.8432 26.2447V27.7981C38.8219 28.3967 38.6722 28.981 38.4086 29.5012C38.1948 29.9359 37.9026 30.3207 37.5534 30.6485C37.9026 30.9762 38.2019 31.3682 38.4157 31.7957ZM22.4323 45.6199C30.9691 45.6199 36.4133 42.9691 36.4133 41.1378V37.2827C33.5202 39.2138 28.2399 40.3967 22.4323 40.3967C16.6247 40.3967 11.3444 39.2138 8.45131 37.2827V41.1378C8.45131 43.2114 14.5582 45.6199 22.4323 45.6199ZM45.493 13.53C45.6812 13.6593 45.8275 13.8389 45.9181 14.0544L45.9042 14.04C45.9948 14.2556 46.0227 14.4854 45.9809 14.7153C45.9391 14.9452 45.8345 15.1607 45.6812 15.326L25.928 36.6048C25.8304 36.7269 25.691 36.8275 25.5376 36.8993C25.3913 36.964 25.231 36.9999 25.0707 36.9999H25.0497C24.8476 36.9999 24.6524 36.9424 24.4782 36.8347C24.2621 36.7054 24.0879 36.497 23.9903 36.2528C23.8927 36.0085 23.8857 35.7284 23.9554 35.4769L28.9042 18.5013H24.1645C23.9833 18.5013 23.7672 18.451 23.593 18.3504C23.4187 18.2498 23.2724 18.1061 23.1678 17.9266C23.0633 17.747 23.0005 17.5458 23.0005 17.3375C22.9936 17.1363 23.0424 16.928 23.1399 16.7484L28.5208 5.65638C28.6184 5.46242 28.7648 5.29719 28.946 5.18224C29.1272 5.0673 29.3363 5.00264 29.5454 5.00264H41.2203C41.3946 4.98828 41.5828 5.03138 41.75 5.1104C41.9173 5.19661 42.0707 5.31874 42.1822 5.4696C42.3007 5.62765 42.3773 5.80725 42.4052 5.99403C42.4331 6.18081 42.4192 6.38196 42.3634 6.56156L40.1748 13.336H44.8587C45.0887 13.336 45.3048 13.4007 45.493 13.53ZM31.5877 17.1076C31.6225 17.2872 31.6086 17.4811 31.5598 17.6536H31.5528L27.5381 31.418L42.1194 15.7067H38.5299C38.3556 15.7139 38.1674 15.678 38.0001 15.599C37.8329 15.5199 37.6795 15.3906 37.568 15.2398C37.4565 15.0889 37.3798 14.9093 37.3519 14.7153C37.324 14.5285 37.338 14.3274 37.4007 14.1478L39.5893 7.38771H30.2215L26.0325 16.1378H30.4585C30.6397 16.1378 30.814 16.1809 30.9743 16.2599C31.1346 16.3461 31.274 16.4682 31.3786 16.6119C31.4831 16.7556 31.5528 16.928 31.5877 17.1076Z"
    fill="#5160FC"
  />
</svg>
