<svg viewBox="0 0 72 72" fill="none" xmlns="http://www.w3.org/2000/svg">
  <path
    fillRule="evenodd"
    clipRule="evenodd"
    d="M27.0115 12.9072C26.3815 12.4147 25.472 12.5265 24.9797 13.1569L10.1649 32.1337C9.67273 32.7641 9.7844 33.6745 10.4143 34.167L21.535 42.8621C22.1648 43.3545 23.0746 43.2429 23.5667 42.6124L38.3816 23.6357C38.8737 23.0052 38.7621 22.0949 38.1321 21.6024L27.0115 12.9072ZM55.593 44.9054C54.963 44.4129 54.0535 44.5247 53.5613 45.1553L48.1032 52.1467C47.6111 52.777 47.7229 53.6875 48.3527 54.1799L54.4833 58.9733C55.1133 59.466 56.0228 59.354 56.515 58.7237L61.9731 51.7323C62.4652 51.1019 62.3536 50.1915 61.7236 49.699L55.593 44.9054ZM28.3945 42.9405C27.7645 42.4481 27.6529 41.5378 28.145 40.9073L37.8358 28.4937C38.3281 27.8634 39.2377 27.7516 39.8677 28.2443L53.4119 38.8344C54.0419 39.3269 54.1535 40.2373 53.6614 40.8677L43.9706 53.2812C43.4785 53.9116 42.5687 54.0233 41.9389 53.5307L28.3945 42.9405ZM12.1376 18.9167C9.92075 21.7563 9.25918 25.3169 10.0268 28.5708L20.9871 14.5314C17.6464 14.5733 14.3544 16.0771 12.1376 18.9167Z"
    fill="white"
  />
</svg>
