<svg xmlns="http://www.w3.org/2000/svg" width="1em" height="1em" preserveAspectRatio="xMidYMid meet" viewBox="0 0 24 24"><path fill="currentColor" d="M6 15a2 2 0 0 1-2 2a2 2 0 0 1-2-2a2 2 0 0 1 2-2h2v2m1 0a2 2 0 0 1 2-2a2 2 0 0 1 2 2v5a2 2 0 0 1-2 2a2 2 0 0 1-2-2v-5m2-8a2 2 0 0 1-2-2a2 2 0 0 1 2-2a2 2 0 0 1 2 2v2H9m0 1a2 2 0 0 1 2 2a2 2 0 0 1-2 2H4a2 2 0 0 1-2-2a2 2 0 0 1 2-2h5m8 2a2 2 0 0 1 2-2a2 2 0 0 1 2 2a2 2 0 0 1-2 2h-2v-2m-1 0a2 2 0 0 1-2 2a2 2 0 0 1-2-2V5a2 2 0 0 1 2-2a2 2 0 0 1 2 2v5m-2 8a2 2 0 0 1 2 2a2 2 0 0 1-2 2a2 2 0 0 1-2-2v-2h2m0-1a2 2 0 0 1-2-2a2 2 0 0 1 2-2h5a2 2 0 0 1 2 2a2 2 0 0 1-2 2h-5Z"/></svg>
