<svg viewBox="0 3 48 42" fill="none" xmlns="http://www.w3.org/2000/svg">
  <g clipPath="url(#clip0_3005_14223)">
    <path
      d="M6.60779 18.4135C7.50411 15.8231 9.00842 13.4397 10.9578 11.5141C13.139 9.33138 15.8656 7.72569 18.8303 6.87267C21.795 6.01965 24.9541 5.93184 27.9627 6.62178C30.9713 7.31173 33.7794 8.76061 36.0797 10.8179C38.3801 12.8752 40.1351 15.5032 41.1568 18.4198L41.232 18.6393L43.2565 17.9306L43.1813 17.711C41.771 13.6843 39.1949 10.2471 35.7162 7.78214C32.2375 5.30462 28.1445 4 23.8823 4C19.6201 4 15.5271 5.30462 12.0484 7.77587C8.56966 10.2471 5.98726 13.678 4.58324 17.7048L4.50803 17.9243L6.53258 18.6331L6.60779 18.4135V18.4135Z"
      fill="#CD2264"
    />
    <path
      d="M41.163 30.0986C40.2667 32.7204 38.7562 35.1415 36.788 37.0984C33.3281 40.5544 28.7337 42.4549 23.851 42.4549C18.9682 42.4549 14.3675 40.5544 10.9139 37.0984C8.96456 35.154 7.46025 32.7518 6.56394 30.1488L6.48872 29.923L4.46417 30.6318L4.53939 30.8513C5.67389 34.1128 7.62949 37.0608 10.1994 39.3689C12.7692 41.6771 15.9095 43.3016 19.2754 44.0794C20.7797 44.4243 22.3153 44.6 23.851 44.6C25.7564 44.6 27.6556 44.3365 29.4921 43.8097C32.8141 42.8563 35.8541 41.0624 38.2986 38.6163C40.4986 36.4335 42.1847 33.724 43.1876 30.7886L43.2628 30.5628L41.2383 29.8791L41.163 30.0986V30.0986Z"
      fill="#CD2264"
    />
    <path
      d="M5.07842 28.8693C6.1377 28.7627 7.14057 28.2923 7.89273 27.5396C8.32522 27.1131 8.66369 26.6051 8.8956 26.0406C9.12752 25.4761 9.24661 24.8802 9.24661 24.2718C9.24661 23.2055 8.8768 22.1643 8.19986 21.3364C7.52292 20.5085 6.57646 19.9377 5.52971 19.7307C4.48296 19.5237 3.39234 19.6806 2.44588 20.1823C1.50568 20.6841 0.759797 21.5058 0.35238 22.4905C-0.055037 23.4752 -0.111449 24.5791 0.195681 25.6015C0.502811 26.6239 1.16095 27.5145 2.051 28.1041C2.81569 28.6122 3.712 28.8819 4.62086 28.8819C4.77129 28.8819 4.92172 28.8756 5.07215 28.8568L5.07842 28.8693ZM4.61459 26.8873C3.91258 26.8873 3.24817 26.6239 2.74674 26.1472C2.37693 25.7771 2.13248 25.3067 2.02592 24.7987C1.92564 24.2844 1.97578 23.7575 2.17635 23.2745C2.37693 22.7916 2.70913 22.3839 3.14162 22.0891C3.57411 21.8006 4.08181 21.6438 4.60205 21.6375C5.31033 21.6375 5.97473 21.9135 6.4699 22.409C6.96507 22.9107 7.24086 23.5693 7.24086 24.2781C7.24086 24.9868 6.96507 25.6454 6.4699 26.1409C5.9622 26.6239 5.2978 26.8873 4.60205 26.8873H4.61459Z"
      fill="#CD2264"
    />
    <path
      d="M46.6475 21.0541C46.0019 20.4081 45.1808 19.969 44.2782 19.7872C43.3819 19.6115 42.4543 19.6993 41.6081 20.0506C40.7619 20.4018 40.0411 20.9914 39.5334 21.7566C39.0257 22.5218 38.7562 23.4062 38.7562 24.3282C38.7562 25.2502 39.0257 26.1346 39.5334 26.8998C40.0411 27.665 40.7619 28.2546 41.6081 28.6059C42.1722 28.8379 42.7739 28.9571 43.3756 28.9571C43.6765 28.9571 43.9836 28.9258 44.2782 28.8693C45.1808 28.6874 45.9957 28.2546 46.6475 27.6023C47.5188 26.7305 48.0014 25.5639 48.0014 24.3282C48.0014 23.0926 47.5188 21.9322 46.6475 21.0604V21.0541ZM46.0771 24.3031C46.0771 24.6607 45.9957 25.0056 45.8515 25.3318C45.7073 25.6579 45.5068 25.9465 45.2435 26.1911C44.7421 26.6929 44.0777 26.9688 43.3756 26.9688C42.6736 26.9688 42.0092 26.6929 41.5078 26.1911C41.2571 25.9465 41.069 25.6579 40.9311 25.3318C40.7995 25.0119 40.7306 24.6669 40.7306 24.322C40.7306 23.977 40.7995 23.632 40.9311 23.3121C41.0628 22.9922 41.2571 22.7037 41.5141 22.4466C41.7585 22.1894 42.0468 21.9824 42.3728 21.8382C42.6987 21.6939 43.0434 21.6186 43.4007 21.6124C43.4133 21.6124 43.4258 21.6124 43.4383 21.6124C43.7768 21.6124 44.1153 21.6751 44.4287 21.8068C44.7609 21.9385 45.0555 22.133 45.3062 22.3901C45.5569 22.641 45.7512 22.9358 45.8891 23.2682C46.0207 23.6007 46.0897 23.9456 46.0834 24.3031H46.0771Z"
      fill="#CD2264"
    />
    <path
      d="M32.5383 16.789C32.5383 16.5068 32.4255 16.2371 32.225 16.0301C31.8238 15.6286 31.1155 15.6286 30.7144 16.0301C27.3736 19.3669 20.5603 19.3669 17.2132 16.0301C16.812 15.6286 16.11 15.6286 15.7026 16.0301C15.502 16.2308 15.3892 16.5005 15.3892 16.7827C15.3892 17.065 15.502 17.3347 15.6964 17.5291C17.3887 19.3794 18.2662 21.7754 18.1847 24.2968C18.2725 26.7995 17.3887 29.1954 15.7026 31.0395C15.6023 31.1398 15.5271 31.259 15.4707 31.3907C15.4143 31.5224 15.3892 31.6604 15.3892 31.7984C15.3892 31.9427 15.4143 32.0807 15.4707 32.2124C15.5208 32.3441 15.6023 32.457 15.7026 32.5636C15.9032 32.7643 16.1727 32.8772 16.4548 32.8772C16.7368 32.8772 17.0064 32.7643 17.2069 32.5636C20.5477 29.2205 27.361 29.2143 30.7081 32.5636C30.9087 32.7643 31.1719 32.871 31.4603 32.8772C31.7486 32.8772 32.0181 32.7643 32.2187 32.5636C32.4193 32.3629 32.5321 32.0932 32.5321 31.8047C32.5321 31.6667 32.507 31.5224 32.4506 31.3907C32.4005 31.259 32.319 31.1461 32.225 31.052C30.5514 29.1954 29.6802 26.7995 29.7804 24.2843C29.6864 21.788 30.5514 19.392 32.2187 17.5417C32.4193 17.341 32.5321 17.0713 32.5321 16.789H32.5383ZM28.3263 28.6498C25.4994 27.665 22.4407 27.665 19.6076 28.6498C20.5666 25.8273 20.5666 22.7727 19.6076 19.9502C22.4344 20.9349 25.4932 20.9349 28.3263 19.9502C27.3673 22.7727 27.3673 25.8273 28.3263 28.6498Z"
      fill="#CD2264"
    />
    <path
      d="M34.1429 27.7277L36.9572 24.8739C37.1139 24.7171 37.2017 24.5038 37.2017 24.2843C37.2017 24.0648 37.1139 23.8515 36.9572 23.6947L34.1241 20.8597L32.9395 22.0389L34.3686 23.4626H30.589V25.1373H34.3686L32.9583 26.5486L34.1429 27.7277V27.7277Z"
      fill="#CD2264"
    />
    <path
      d="M13.9413 27.7403L16.7932 24.8864C16.9499 24.7296 17.0377 24.5164 17.0377 24.2968C17.0377 24.0773 16.9499 23.8641 16.7932 23.7072L13.9413 20.8534L12.7629 22.0326L14.1857 23.4564H10.5315V25.131H14.1857L12.7629 26.5611L13.9413 27.7403V27.7403Z"
      fill="#CD2264"
    />
  </g>
  <defs>
    <clipPath id="clip0_3005_14223">
      <rect width="48" height="48" fill="white" />
    </clipPath>
  </defs>
</svg>
